<?xml version="1.0" encoding="iso-8859-1"?>
<!-- Generator: Adobe Illustrator 19.0.0, SVG Export Plug-In . SVG Version: 6.00 Build 0)  -->
<svg version="1.1" id="Layer_1" xmlns="http://www.w3.org/2000/svg" xmlns:xlink="http://www.w3.org/1999/xlink" x="0px" y="0px"
	 viewBox="0 0 512.001 512.001" style="enable-background:new 0 0 512.001 512.001;" xml:space="preserve">
<path style="fill:#CCA400;" d="M233.728,303.973c-43.836-10.101-76.52-49.37-76.52-96.274c0-54.562,44.232-98.794,98.794-98.794
	s98.794,44.232,98.794,98.794c0,46.903-32.684,86.172-76.52,96.274H233.728z"/>
<path style="opacity:0.08;fill:#891C00;enable-background:new    ;" d="M315.725,129.003c12.609,16.588,20.097,37.28,20.097,59.723
	c0,46.903-32.684,86.172-76.52,96.274h-44.549c-13.801-3.18-26.494-9.257-37.412-17.547c13.739,18.06,33.541,31.257,56.386,36.521
	h44.549c43.836-10.101,76.52-49.371,76.52-96.274C354.796,175.581,339.465,147.047,315.725,129.003z"/>
<polygon style="fill:#FFCD00;" points="283.202,59.806 301.216,85.91 269.602,83.362 256.002,112.014 242.402,83.362 210.788,85.91 
	228.801,59.806 210.788,33.702 242.402,36.249 256.002,7.598 269.602,36.249 301.216,33.702 "/>
<rect x="152.347" y="469.617" style="fill:#CCA400;" width="207.3" height="34.786"/>
<path style="fill:#FFD422;" d="M233.728,264.478v68.101v32.489v16.92c0,9.628-7.804,17.432-17.432,17.432l0,0v42.313h79.412V399.42
	l0,0c-9.628,0-17.432-7.804-17.432-17.432v-117.51H233.728z"/>
<path style="fill:#EEBF00;" d="M308.412,469.621h-104.82c-7.669,0-13.944-6.275-13.944-13.944l0,0
	c0-7.669,6.275-13.944,13.944-13.944h104.82c7.669,0,13.944,6.275,13.944,13.944l0,0
	C322.356,463.347,316.081,469.621,308.412,469.621z"/>
<g style="opacity:0.08;">
	<path style="fill:#891C00;" d="M274.772,399.421L274.772,399.421v42.313h12.704c7.669,0,13.944,6.275,13.944,13.944
		s-6.275,13.944-13.944,13.944h21.463c7.669,0,13.944-6.275,13.944-13.944s-6.275-13.944-13.944-13.944h-12.704v-42.313l0,0
		c-9.628,0-17.432-7.804-17.432-17.432V264.478h-21.463v117.51C257.341,391.616,265.146,399.421,274.772,399.421z"/>
	<rect x="338.719" y="469.617" style="fill:#891C00;" width="21.465" height="34.776"/>
</g>
<rect x="233.732" y="273.672" style="opacity:0.65;fill:#CCA400;enable-background:new    ;" width="44.548" height="38.838"/>
<polygon style="fill:#FFCD00;" points="233.888,140.044 256.002,108.724 325.886,207.701 256.002,306.677 186.118,207.701 
	214.346,167.721 "/>
<polygon style="opacity:0.08;fill:#891C00;enable-background:new    ;" points="256.002,279.151 195.835,193.937 186.118,207.701 
	256.002,306.677 325.886,207.701 316.169,193.937 "/>
<g style="opacity:0.21;">
	<path style="fill:#FFFFFF;" d="M283.203,59.806l18.013-26.104l-31.614,2.548L256.002,7.598l-13.601,28.652l-31.614-2.548
		L228.8,59.806l-8.728,12.647c17.215-0.831,40.787-3.544,64.079-11.27L283.203,59.806z"/>
</g>
<path d="M359.652,462.024h-30.655c0.62-2.008,0.956-4.138,0.956-6.346c0-11.878-9.664-21.541-21.542-21.541h-5.107V399.42
	c0-4.196-3.401-7.598-7.598-7.598c-5.423,0-9.834-4.412-9.834-9.834v-72.175c20.715-6.069,39.373-18.474,53.017-35.409
	c15.157-18.811,23.504-42.501,23.504-66.704c0-54.227-40.781-99.105-93.284-105.584l5.108-10.761l26.388,2.127
	c2.916,0.24,5.722-1.233,7.19-3.774c1.467-2.541,1.339-5.699-0.326-8.114l-15.036-21.789l15.036-21.789
	c1.666-2.415,1.794-5.573,0.326-8.114c-1.467-2.541-4.26-4.015-7.19-3.774l-26.388,2.126L262.866,4.34
	C261.607,1.689,258.936,0,256.003,0c-2.934,0-5.605,1.689-6.863,4.34l-11.353,23.916l-26.388-2.126
	c-2.915-0.239-5.722,1.233-7.19,3.774c-1.467,2.541-1.339,5.699,0.326,8.114l15.036,21.789l-15.036,21.789
	c-1.666,2.415-1.794,5.573-0.326,8.114c1.467,2.541,4.261,4.017,7.19,3.774l26.388-2.127l5.108,10.761
	c-52.503,6.48-93.284,51.357-93.284,105.584c0,24.204,8.347,47.893,23.504,66.704c13.644,16.935,32.302,29.34,53.017,35.409v22.766
	c0,4.196,3.401,7.598,7.598,7.598s7.598-3.402,7.598-7.598v-33.517l8.47,11.996c1.423,2.016,3.738,3.215,6.207,3.215
	c2.469,0,4.783-1.199,6.207-3.215l8.469-11.995v82.925c0,11.154,7.333,20.627,17.432,23.851v28.296h-64.217l0.001-28.296
	c10.099-3.224,17.432-12.697,17.432-23.851v-16.92c0-4.196-3.401-7.598-7.598-7.598s-7.598,3.402-7.598,7.598v16.92
	c0,5.423-4.412,9.834-9.835,9.834c-4.197,0-7.598,3.402-7.598,7.598v34.716h-5.106c-11.878,0-21.542,9.663-21.542,21.541
	c0,2.208,0.336,4.34,0.956,6.346H152.35c-4.197,0-7.598,3.402-7.598,7.598v34.78c0,4.196,3.401,7.598,7.598,7.598h207.3
	c4.197,0,7.598-3.402,7.598-7.598v-34.78C367.249,465.425,363.849,462.024,359.652,462.024z M241.792,75.789l-15.659,1.262
	l8.923-12.93c1.793-2.597,1.793-6.032,0-8.631l-8.923-12.93l15.659,1.262c3.148,0.26,6.121-1.463,7.474-4.314l6.736-14.192
	l6.735,14.191c1.353,2.852,4.341,4.569,7.474,4.315l15.659-1.262l-8.923,12.93c-1.793,2.597-1.793,6.032,0,8.631l8.923,12.93
	l-15.659-1.262c-3.126-0.254-6.12,1.464-7.474,4.315l-6.735,14.192l-6.736-14.192c-1.265-2.665-3.947-4.34-6.86-4.34
	C242.201,75.764,241.997,75.771,241.792,75.789z M256.003,293.505l-60.585-85.804l25.136-35.598
	c2.42-3.428,1.604-8.168-1.824-10.589c-3.429-2.421-8.169-1.604-10.589,1.823l-28.229,39.98c-1.855,2.628-1.855,6.138,0,8.764
	l46.23,65.474c-0.002,0.066-0.01,0.13-0.01,0.197v16.136c-36.545-12.545-61.326-46.715-61.326-86.189
	c0-44.912,32.636-82.343,75.439-89.83l-12.562,17.791c-2.42,3.428-1.604,8.168,1.824,10.589c3.429,2.421,8.169,1.603,10.589-1.823
	l15.908-22.53l60.585,85.804L256.003,293.505z M332.093,212.082c1.855-2.627,1.855-6.137,0-8.763l-60.332-85.449
	c42.802,7.487,75.438,44.917,75.438,89.83c0,39.475-24.781,73.644-61.326,86.189v-16.136c0-0.066-0.008-0.13-0.01-0.195
	L332.093,212.082z M197.245,455.677c0-3.499,2.848-6.346,6.347-6.346h12.703h79.412h12.704c3.5,0,6.347,2.848,6.347,6.346
	c0,3.5-2.848,6.346-6.347,6.346H203.593C200.092,462.024,197.245,459.177,197.245,455.677z M352.054,496.805H159.949V477.22h43.643
	h104.819h43.643V496.805z"/>
<path d="M296.523,200.103H263.6v-31.311c0-4.196-3.401-7.598-7.598-7.598s-7.598,3.402-7.598,7.598v38.908
	c0,4.196,3.401,7.598,7.598,7.598h40.52c4.197,0,7.598-3.402,7.598-7.598S300.718,200.103,296.523,200.103z"/>
<g>
</g>
<g>
</g>
<g>
</g>
<g>
</g>
<g>
</g>
<g>
</g>
<g>
</g>
<g>
</g>
<g>
</g>
<g>
</g>
<g>
</g>
<g>
</g>
<g>
</g>
<g>
</g>
<g>
</g>
</svg>
