<?xml version="1.0" encoding="iso-8859-1"?>
<!-- Generator: Adobe Illustrator 19.0.0, SVG Export Plug-In . SVG Version: 6.00 Build 0)  -->
<svg version="1.1" id="Layer_1" xmlns="http://www.w3.org/2000/svg" xmlns:xlink="http://www.w3.org/1999/xlink" x="0px" y="0px"
	 viewBox="0 0 508.609 508.609" style="enable-background:new 0 0 508.609 508.609;" xml:space="preserve">
<circle style="fill:#90DFAA;" cx="254.305" cy="254.305" r="217.007"/>
<path style="fill:#324A5E;" d="M208.869,223.11l-3.391-2.373l-10.511-7.121l8.477-26.787c-4.069-36.281-12.207-69.849-12.207-69.849
	s-15.597,35.264-19.666,97.653c-0.678,7.799,2.374,15.597,7.799,21.023c5.086,5.425,12.885,12.207,22.718,18.649
	c2.034,1.356,4.408,2.713,6.442,4.069V223.11H208.869z"/>
<g>
	<path style="fill:#FFD05B;" d="M254.305,110.877L254.305,110.877L254.305,110.877z"/>
	<path style="fill:#FFD05B;" d="M267.528,68.493l-13.224-0.678l0,0l0,0l0,0l0,0l-13.224,0.678c0,0,1.017,11.868-4.747,22.379v14.58
		l17.971,5.764l0,0l0,0l17.293-5.425V89.515C266.511,79.004,267.528,68.493,267.528,68.493z"/>
	<path style="fill:#FFD05B;" d="M254.305,110.877L254.305,110.877L254.305,110.877z"/>
	<path style="fill:#FFD05B;" d="M254.305,110.877L254.305,110.877L254.305,110.877z"/>
	<path style="fill:#FFD05B;" d="M271.597,89.176v16.275l-17.293,5.425l0,0l0,0l-17.971-5.764v-14.58
		c1.356-2.374,2.373-5.086,3.052-7.46c2.374-8.138,1.695-14.919,1.695-14.919l13.224-0.678l0,0l0,0l0,0l0,0l13.224,0.678
		c0,0-0.678,6.781,1.695,14.241C269.563,84.768,270.58,87.142,271.597,89.176z"/>
	<path style="fill:#FFD05B;" d="M254.305,110.877L254.305,110.877L254.305,110.877z"/>
</g>
<polygon style="fill:#E6E9EE;" points="271.258,190.898 234.299,190.898 232.943,105.791 272.276,105.791 "/>
<polygon style="fill:#84DBFF;" points="265.155,163.433 254.305,193.611 243.115,163.433 250.575,112.911 257.695,112.911 "/>
<polygon style="fill:#54C0EB;" points="257.695,112.911 250.575,112.911 248.879,105.791 259.73,105.791 "/>
<path style="fill:#FFFFFF;" d="M270.919,87.142c-2.713,11.528-12.546,16.615-16.615,18.31c-4.069-1.695-13.902-6.781-16.615-18.31
	c0,0-7.46,7.46,1.695,28.821c0,0,8.477-9.494,14.919-9.833c6.442,0.339,14.919,9.833,14.919,9.833
	C278.04,94.601,270.919,87.142,270.919,87.142z"/>
<polygon style="fill:#2B3B4E;" points="302.114,493.012 307.2,305.844 303.809,256 253.626,256 253.626,334.665 273.293,493.012 "/>
<polygon style="fill:#324A5E;" points="235.317,493.012 254.983,334.665 254.983,256 204.8,256 201.409,305.844 206.495,493.012 "/>
<g>
	<path style="fill:#2B3B4E;" d="M337.038,214.633c-4.408-62.728-19.666-97.653-19.666-97.653s-8.138,33.907-11.868,70.188
		l8.477,26.787l-10.511,7.121l-3.391,2.034v34.925c2.034-1.356,4.408-2.713,6.442-3.73c9.833-6.442,17.632-13.224,22.718-18.649
		C334.665,229.891,337.377,222.432,337.038,214.633z"/>
	<path style="fill:#2B3B4E;" d="M235.317,92.567c0,0-7.121,17.293-43.74,24.413c0,0,23.396,98.67,9.494,141.393
		c0,0-7.121,44.758-4.747,56.625c0,0,34.246,16.276,51.878-3.391c0,0,15.597-85.107,6.781-120.71
		C254.983,190.898,244.472,175.64,235.317,92.567z"/>
</g>
<path style="fill:#324A5E;" d="M215.989,117.997c0,0,14.241,53.913,38.993,73.918c0-0.339,0-0.678-0.339-1.017
	c0,0-10.511-15.258-19.666-98.331c0,0-3.052,7.121-14.58,14.241l7.799,8.816L215.989,117.997z"/>
<path style="fill:#F9B54C;" d="M269.224,82.734l-1.017,1.356c-2.373,3.052-5.764,4.747-9.494,5.425L256,89.854
	c-1.356,0.339-2.713,0.339-4.069,0l-2.374-0.339c-3.73-0.678-7.121-2.374-9.494-5.425l-0.678-0.678
	c2.374-8.138,1.695-14.919,1.695-14.919l13.224-0.678l0,0l0,0l0,0l0,0l13.224,0.678C267.528,68.493,266.85,74.935,269.224,82.734z"
	/>
<g>
	<path style="fill:#FFD05B;" d="M253.966,26.109h-24.752l4.069,41.706c0.339,3.052,1.356,5.764,3.391,8.138l3.391,4.069
		c2.374,3.052,5.764,4.747,9.494,5.425l2.373,0.339c1.356,0.339,2.713,0.339,4.069,0l2.374-0.339
		c3.73-0.678,7.121-2.374,9.494-5.425l3.391-4.069c2.034-2.374,3.052-5.086,3.391-8.138l4.069-41.706H253.966z"/>
	
		<ellipse transform="matrix(0.3585 -0.9335 0.9335 0.3585 132.248 290.7634)" style="fill:#FFD05B;" cx="277.69" cy="49.155" rx="6.103" ry="4.069"/>
	
		<ellipse transform="matrix(0.3585 0.9335 -0.9335 0.3585 193.5927 -183.4353)" style="fill:#FFD05B;" cx="230.268" cy="49.145" rx="6.103" ry="4.069"/>
</g>
<g>
	<path style="fill:#324A5E;" d="M234.299,37.298h-9.833c0.339,1.017,0.678,2.034,1.356,2.713c2.713,5.425,7.799,15.258,7.799,15.258
		C232.604,47.809,233.282,41.706,234.299,37.298z"/>
	<path style="fill:#324A5E;" d="M273.293,37.298c2.034,5.764,2.373,14.58,2.373,14.58c1.017-6.781,4.069-7.121,4.069-7.121
		c0.678-2.713,1.017-5.086,1.356-7.46C281.091,37.298,273.293,37.298,273.293,37.298z"/>
	<path style="fill:#324A5E;" d="M301.775,493.012h-28.482v11.868c0,2.034,1.695,3.73,3.73,3.73h38.315v-1.695
		C315.677,499.115,309.574,493.012,301.775,493.012z"/>
</g>
<g>
	<path style="fill:#2B3B4E;" d="M206.834,493.012h28.482v11.868c0,2.034-1.695,3.73-3.73,3.73h-38.654v-1.695
		C192.932,499.115,199.036,493.012,206.834,493.012z"/>
	<path style="fill:#2B3B4E;" d="M267.528,42.384c-1.695,0-24.752,0-26.448,0c-7.46,0-8.138,5.086-8.138,9.155
		c0,3.73,1.017,9.155,8.138,9.155c3.391,0,6.442-1.695,8.816-4.069c0,0.339,0.339,0.339,0.678,0.339s0.678-0.339,0.678-0.678
		c0-1.695,1.356-3.391,3.391-3.391c1.695,0,3.391,1.356,3.391,3.391c0,0.339,0.339,0.678,0.678,0.678
		c0.339,0,0.339-0.339,0.678-0.339c2.374,2.374,5.425,4.069,8.816,4.069c7.46,0,8.138-5.086,8.138-9.155
		C276.005,47.47,274.988,42.384,267.528,42.384z M241.081,58.66c-5.425,0-6.442-3.052-6.442-7.46s1.017-7.46,6.442-7.46
		c6.781,0,10.172,1.695,10.172,5.086C251.592,53.234,246.506,58.66,241.081,58.66z M254.305,51.878
		c-0.678,0-1.356,0.339-2.034,0.339c0.339-1.017,0.678-2.034,0.678-3.052c0-2.034-0.678-4.069-3.73-5.425h10.172
		c-3.052,1.356-3.73,3.391-3.73,5.425c0,1.017,0.339,2.034,0.678,3.052C255.661,51.878,254.983,51.878,254.305,51.878z
		 M267.528,58.66c-5.425,0-10.172-5.425-10.172-9.494c0-3.391,3.391-5.086,10.172-5.086c5.425,0,6.442,3.052,6.442,7.46
		C274.31,55.947,272.954,58.66,267.528,58.66z"/>
</g>
<path style="fill:#F1543F;" d="M226.501,29.838c-2.713,4.408-3.391,8.816-1.356,11.189c4.408,4.408,16.275-2.374,29.16-2.034
	c12.885-0.678,24.752,6.103,29.16,2.034c2.034-2.374,1.017-6.781-1.356-11.189H226.501z"/>
<path style="fill:#FF7058;" d="M283.804,33.907c0,0.339,0,0.339,0,0.678c-8.816-2.034-18.988-2.713-29.838-2.713
	c-10.511,0-20.683,0.678-29.838,2.713c0-0.339,0-0.339,0-0.678c0-17.971,13.224-32.212,29.838-32.212
	C270.241,1.695,283.804,15.936,283.804,33.907z"/>
<path style="fill:#F1543F;" d="M268.546,28.482h-29.16c-1.356-6.781,0-17.971,4.747-24.752c3.052-1.356,6.442-2.034,9.833-2.034
	c3.391,0,6.781,0.678,9.833,2.034C268.546,10.511,269.902,21.362,268.546,28.482z"/>
<path style="fill:#FF7058;" d="M246.845,2.713c-4.069,6.103-6.781,16.615-7.799,26.448h29.16c-0.678-9.833-3.73-20.344-7.799-26.448
	C259.391,1.017,257.356,0,255.322,0h-3.391C250.236,0,248.201,1.017,246.845,2.713z"/>
<path style="fill:#324A5E;" d="M273.293,92.567c0,0,7.121,17.293,43.74,24.413c0,0-23.396,98.67-9.494,141.393
	c0,0,7.121,44.758,4.747,56.625c0,0-34.246,16.276-51.878-3.391c0,0-15.597-85.107-6.781-120.71
	C253.626,190.898,264.138,175.64,273.293,92.567z"/>
<g>
	<path style="fill:#2B3B4E;" d="M292.62,117.997c0,0-14.241,53.913-38.993,73.918c0-0.339,0-0.678,0.339-1.017
		c0,0,10.511-15.258,19.666-98.331c0,0,3.052,7.121,14.58,14.241l-7.799,8.816L292.62,117.997z"/>
	<path style="fill:#2B3B4E;" d="M263.799,204.461c0,2.374-1.695,4.408-4.069,4.408c-2.034,0-4.069-2.034-4.069-4.408
		c0-2.374,1.695-4.408,4.069-4.408C262.103,200.392,263.799,202.087,263.799,204.461z"/>
	<circle style="fill:#2B3B4E;" cx="260.408" cy="251.931" r="4.069"/>
	<circle style="fill:#2B3B4E;" cx="260.408" cy="227.857" r="4.069"/>
</g>
<g>
</g>
<g>
</g>
<g>
</g>
<g>
</g>
<g>
</g>
<g>
</g>
<g>
</g>
<g>
</g>
<g>
</g>
<g>
</g>
<g>
</g>
<g>
</g>
<g>
</g>
<g>
</g>
<g>
</g>
</svg>
