<?xml version="1.0" encoding="iso-8859-1"?>
<!-- Generator: Adobe Illustrator 19.0.0, SVG Export Plug-In . SVG Version: 6.00 Build 0)  -->
<svg version="1.1" id="Layer_1" xmlns="http://www.w3.org/2000/svg" xmlns:xlink="http://www.w3.org/1999/xlink" x="0px" y="0px"
	 viewBox="0 0 511.983 511.983" style="enable-background:new 0 0 511.983 511.983;" xml:space="preserve">
<path style="fill:#A0D468;" d="M21.343,399.992c-5.875,0-10.672-4.781-10.672-10.688V58.666c0-5.875,4.797-10.656,10.672-10.656
	h469.312c5.875,0,10.672,4.781,10.672,10.656v330.638c0,5.906-4.797,10.688-10.672,10.688H21.343z"/>
<path style="fill:#E6E9ED;" d="M490.655,37.339H21.343C9.562,37.339,0,46.885,0,58.666v330.638c0,11.781,9.562,21.342,21.343,21.342
	h469.312c11.781,0,21.328-9.561,21.328-21.342V58.666C511.983,46.886,502.436,37.339,490.655,37.339z M490.655,389.304H21.343
	V58.666h469.312V389.304z"/>
<polygon style="fill:#CCD1D9;" points="341.331,474.644 170.666,474.644 191.93,389.398 320.02,389.367 "/>
<rect x="15.952" y="346.652" style="fill:#E6E9ED;" width="480.09" height="61.03"/>
<path style="fill:#434A54;" d="M266.663,378.648c0,5.906-4.781,10.656-10.672,10.656c-5.89,0-10.656-4.75-10.656-10.656
	c0-5.875,4.766-10.656,10.656-10.656C261.882,367.992,266.663,372.773,266.663,378.648z"/>
<path style="fill:#E6E9ED;" d="M341.331,453.303H170.666c-5.891,0-10.672,4.781-10.672,10.688c0,5.873,4.781,10.654,10.672,10.654
	h170.665c5.891,0,10.656-4.781,10.656-10.654C351.987,458.084,347.221,453.303,341.331,453.303z"/>
<rect x="53.341" y="90.662" style="fill:#ED5564;" width="255.99" height="170.67"/>
<path style="fill:#FFCE54;" d="M191.993,175.991l55.889-31.218c-2.812-5.031-6.359-9.765-10.625-14.03
	c-24.999-25-65.513-25-90.513,0c-24.983,24.999-24.983,65.514,0,90.513c25,24.983,65.514,24.983,90.513,0
	c4.266-4.281,7.812-9,10.625-14.031L191.993,175.991z"/>
<path style="fill:#E6E9ED;" d="M394.659,271.988c-5.891,0-10.672-4.766-10.672-10.656V90.665c0-5.891,4.781-10.671,10.672-10.671
	s10.67,4.781,10.67,10.671v170.667C405.329,267.222,400.55,271.988,394.659,271.988z"/>
<path style="fill:#F5F7FA;" d="M418.391,250.66h-66.404c-5.891,0-10.656-4.781-10.656-10.672c0-5.89,4.766-10.656,10.656-10.656
	h66.404c8.125,0,11-1.594,11.688-2.062c0.078-3.109-5.781-17.14-38.436-40.327l-6.312-4.5
	c-24.906-17.671-53.154-43.202-46.389-64.404c4.404-13.812,19.826-16.702,31.982-16.702h66.404c5.891,0,10.656,4.765,10.656,10.656
	c0,5.89-4.766,10.671-10.656,10.671h-66.404c-8.125,0-11,1.578-11.672,2.062c-0.094,3.094,5.766,17.14,38.422,40.327l6.326,4.484
	c24.891,17.687,53.156,43.202,46.391,64.404C445.985,247.754,430.563,250.66,418.391,250.66z"/>
<path style="fill:#434A54;" d="M446.813,314.65H63.529c-5.891,0-10.671-4.781-10.671-10.656c0-5.906,4.781-10.656,10.671-10.656
	h383.285c5.891,0,10.672,4.75,10.672,10.656C457.485,309.869,452.704,314.65,446.813,314.65z"/>
<g>
</g>
<g>
</g>
<g>
</g>
<g>
</g>
<g>
</g>
<g>
</g>
<g>
</g>
<g>
</g>
<g>
</g>
<g>
</g>
<g>
</g>
<g>
</g>
<g>
</g>
<g>
</g>
<g>
</g>
</svg>
